<?xml version="1.0" encoding="utf-8"?>
<!-- Generator: Adobe Illustrator 16.0.0, SVG Export Plug-In . SVG Version: 6.00 Build 0)  -->
<!DOCTYPE svg PUBLIC "-//W3C//DTD SVG 1.1//EN" "http://www.w3.org/Graphics/SVG/1.1/DTD/svg11.dtd">
<svg version="1.1" xmlns="http://www.w3.org/2000/svg" xmlns:xlink="http://www.w3.org/1999/xlink" x="0px" y="0px" width="250px"
	 height="250px" viewBox="0 0 250 250" enable-background="new 0 0 250 250" xml:space="preserve">
<g id="btn-small" display="none">
	<g display="inline">
		<g>
			<path fill="#B3B3B3" d="M250,235c0,8.25-6.75,15-15,15H15c-8.25,0-15-6.75-15-15V15C0,6.75,6.75,0,15,0h220c8.25,0,15,6.75,15,15
				V235z"/>
		</g>
		<rect x="52" y="159" fill="none" width="146" height="81"/>
		<text transform="matrix(1 0 0 1 73.584 189.4805)"><tspan x="0" y="0" fill="#4D4D4D" font-family="'Roboto-Bold'" font-size="40">Small</tspan><tspan x="21.782" y="26" fill="#4D4D4D" font-family="'Roboto-Regular'" font-size="20">&lt; 15kg</tspan></text>
		<g>
			<g>
				<path fill="#4D4D4D" d="M90.896,100.12c0,0,2.138,1.658,3.587,5.032c1.449,3.374,0.869,1.562,0.869,1.562l-0.652,3.188
					l1.086-1.304c0,0-0.145-0.942-0.29,2.029c-0.145,2.97,3.188,7.898,3.188,7.898l1.123-1.015l0.109,3.115l1.195-1.268l0.87,2.174
					l0.653-1.413l0.76,1.593l0.87-0.832l0.797,0.832c0,0,1.448,2.537,1.666,4.783c0.217,2.246-0.072,5.362,0.58,7.754
					c0.652,2.391,0.507,1.883,0.507,1.883s-1.666,0.871-1.811,1.449c-0.145,0.579,0.435,1.088,0.435,1.088s-1.015,0.507-1.449,1.304
					l-1.159,0.508c0,0-0.58,1.303,0.941,1.448c0,0,0.97,0.58,3.057,0c-0.014,0.652,1.508,0.942,3.755,0.218
					c0,0,0.724-0.796,0.579-3.478c0.798,0,1.612-0.151,1.739-0.797c0,0,0.291-0.581,0-1.813c-0.29-1.229-0.072-8.838,0.435-11.665
					c0,0,2.899-1.304,5.217-1.957c2.319-0.652,9.71-3.043,14.347-3.84c4.637-0.797,7.101,0.217,7.101,0.217s1.232,3.985,2.899,6.159
					c1.668,2.174,3.695,5.29,4.564,8.115c0.33,1.471,0,3.914,0,3.914s-1.086,1.882-1.594,2.463
					c-0.508,0.579-1.521,1.159-2.029,1.738c-0.508,0.58-0.29,0.85,0.509,1.367c0.796,0.517,4.347,0.352,5.795,0
					c0.664-0.285,1.088-1.439,1.16-1.656c0,0,0.072-0.87,0-1.667c1.521,0.289,2.897-0.145,2.897-0.145s1.812-1.16,1.885-2.319
					c0.071-1.159-0.363-3.043-0.797-4.71c-0.435-1.665,0.073-3.623-0.072-4.71c-0.146-1.086-0.073-1.521-2.319-3.695
					c0-2.681,0-5.579,0.869-7.246c0,0,2.536-4.203,0.87-8.478c-0.91-1.997-2.246-2.793-2.246-2.793s3.276-3.656,3.704-7.423
					c0.426-3.768-0.009-8.695-5.008-12.101c0,0-5.87-3.043-8.987,1.738c0,0-1.434,1.54-2.142,5.123
					c-0.089,1.34-0.321,2.485-0.321,2.485s3.552,0.508,4.855-1.521c1.304-2.029,1.594-3.478,4.42-2.536
					c2.827,0.942,1.957,4.057,1.231,5.217c-0.725,1.159-2.753,3.624-2.753,3.624s-1.377,0.362-2.824,0.145
					c-1.451-0.217-15.509-1.304-22.248,1.304c-4.854-1.594-8.665-0.761-11.159-1.812c0,0-6.375-5.796-8.369-8.224
					c0,0-0.761-0.942-0.761-1.848c0-0.906,0.073-2.102-0.362-3.768c-0.104-0.399-0.185-0.751-0.242-1.068
					c-0.181-1.002,2.38-7.446,0.635-8.678c-1.226-0.725-4.052,1.993-4.776,5.362l-0.471-1.014c0,0-0.29,1.305-0.218,1.739
					l-0.471-1.087c0,0-0.688,0.579-0.761,1.123c-0.057,0.18-0.688,0.29-0.688,0.29s-4.094,0.331-5,0.999
					c-0.213,0.138,0-0.745,0-0.745s-0.543,0.181-0.869,0.978v-0.797c0,0-0.399,0.362-0.399,0.979c0,0.616-0.253-0.87-0.253-0.87
					s-0.217,0.362-0.326,1.16c-0.363,0.29-0.399,0.506-0.543,0.869c-0.362,0.072-0.508,0.253-0.508,0.253s-0.543,0.29-0.725,0.906
					c-0.181,0.616-0.145,0.797-0.145,0.797c-1.395,0.561-2.141,1.133-3.623,1.376c-1.161,0.14-2.282,0.506-2.282,0.506
					s-1.594,0.418-2.283,0.708c-0.688,0.29-0.942,0.452-0.942,0.452s-0.833,0.326-0.471,1.558s0.652,1.231,0.652,1.231
					s-0.434,0.471,0.326,1.703c0.761,1.232,0.878,1.486,0.878,1.486l0.172-0.616l0.617,1.231l0.072-0.869l0.362,0.869l0.146-0.651
					l0.181,0.219l0.181-0.29c0,0-0.254,0.616-0.073,1.015c0.182,0.398-0.144,1.159,1.558,1.993c1.703,0.833,2.609,0.29,2.609,0.29
					L90.896,100.12z"/>
				<path fill="#4D4D4D" d="M98.275,77.954c0,0,0.205-0.889-0.604-1.319c-0.809-0.429-2.627,1.996-3.133,3.512
					c-0.506,1.516-0.707,3.234-0.707,3.234h3.84L98.275,77.954z"/>
			</g>
		</g>
	</g>
</g>
<g id="btn-small-down" display="none">
	<g display="inline">
		<g>
			<path fill="#43A67B" d="M247,235.5c0,6.903-5.597,12.5-12.5,12.5h-220C7.597,248,2,242.403,2,235.5v-220C2,8.597,7.597,3,14.5,3
				h220c6.903,0,12.5,5.597,12.5,12.5V235.5z"/>
			<path fill="#1F704D" d="M235,5c5.514,0,10,4.486,10,10v220c0,5.514-4.486,10-10,10H15c-5.514,0-10-4.486-10-10V15
				C5,9.486,9.486,5,15,5H235 M235,0H15C6.75,0,0,6.75,0,15v220c0,8.25,6.75,15,15,15h220c8.25,0,15-6.75,15-15V15
				C250,6.75,243.25,0,235,0L235,0z"/>
		</g>
		<rect x="52" y="159" fill="none" width="146" height="81"/>
		<text transform="matrix(1 0 0 1 73.584 189.4805)"><tspan x="0" y="0" fill="#FFFFFF" font-family="'Roboto-Bold'" font-size="40">Small</tspan><tspan x="24.268" y="26" fill="#FFFFFF" font-family="'Roboto-Regular'" font-size="20">&lt;15kg</tspan></text>
		<g>
			<g>
				<path fill="#FFFFFF" d="M90.896,100.12c0,0,2.138,1.658,3.587,5.032c1.449,3.374,0.869,1.562,0.869,1.562l-0.652,3.188
					l1.086-1.304c0,0-0.145-0.942-0.29,2.029c-0.145,2.97,3.188,7.898,3.188,7.898l1.123-1.015l0.109,3.115l1.195-1.268l0.87,2.174
					l0.653-1.413l0.76,1.593l0.87-0.832l0.797,0.832c0,0,1.448,2.537,1.666,4.783c0.217,2.246-0.072,5.362,0.58,7.754
					c0.652,2.391,0.507,1.883,0.507,1.883s-1.666,0.871-1.811,1.449c-0.145,0.579,0.435,1.088,0.435,1.088s-1.015,0.507-1.449,1.304
					l-1.159,0.508c0,0-0.58,1.303,0.941,1.448c0,0,0.97,0.58,3.057,0c-0.014,0.652,1.508,0.942,3.755,0.218
					c0,0,0.724-0.796,0.579-3.478c0.798,0,1.612-0.151,1.739-0.797c0,0,0.291-0.581,0-1.813c-0.29-1.229-0.072-8.838,0.435-11.665
					c0,0,2.899-1.304,5.217-1.957c2.319-0.652,9.71-3.043,14.347-3.84c4.637-0.797,7.101,0.217,7.101,0.217s1.232,3.985,2.899,6.159
					c1.668,2.174,3.695,5.29,4.564,8.115c0.33,1.471,0,3.914,0,3.914s-1.086,1.882-1.594,2.463
					c-0.508,0.579-1.521,1.159-2.029,1.738c-0.508,0.58-0.29,0.85,0.509,1.367c0.796,0.517,4.347,0.352,5.795,0
					c0.664-0.285,1.088-1.439,1.16-1.656c0,0,0.072-0.87,0-1.667c1.521,0.289,2.897-0.145,2.897-0.145s1.812-1.16,1.885-2.319
					c0.071-1.159-0.363-3.043-0.797-4.71c-0.435-1.665,0.073-3.623-0.072-4.71c-0.146-1.086-0.073-1.521-2.319-3.695
					c0-2.681,0-5.579,0.869-7.246c0,0,2.536-4.203,0.87-8.478c-0.91-1.997-2.246-2.793-2.246-2.793s3.276-3.656,3.704-7.423
					c0.426-3.768-0.009-8.695-5.008-12.101c0,0-5.87-3.043-8.987,1.738c0,0-1.434,1.54-2.142,5.123
					c-0.089,1.34-0.321,2.485-0.321,2.485s3.552,0.508,4.855-1.521c1.304-2.029,1.594-3.478,4.42-2.536
					c2.827,0.942,1.957,4.057,1.231,5.217c-0.725,1.159-2.753,3.624-2.753,3.624s-1.377,0.362-2.824,0.145
					c-1.451-0.217-15.509-1.304-22.248,1.304c-4.854-1.594-8.665-0.761-11.159-1.812c0,0-6.375-5.796-8.369-8.224
					c0,0-0.761-0.942-0.761-1.848c0-0.906,0.073-2.102-0.362-3.768c-0.104-0.399-0.185-0.751-0.242-1.068
					c-0.181-1.002,2.38-7.446,0.635-8.678c-1.226-0.725-4.052,1.993-4.776,5.362l-0.471-1.014c0,0-0.29,1.305-0.218,1.739
					l-0.471-1.087c0,0-0.688,0.579-0.761,1.123c-0.057,0.18-0.688,0.29-0.688,0.29s-4.094,0.331-5,0.999
					c-0.213,0.138,0-0.745,0-0.745s-0.543,0.181-0.869,0.978v-0.797c0,0-0.399,0.362-0.399,0.979c0,0.616-0.253-0.87-0.253-0.87
					s-0.217,0.362-0.326,1.16c-0.363,0.29-0.399,0.506-0.543,0.869c-0.362,0.072-0.508,0.253-0.508,0.253s-0.543,0.29-0.725,0.906
					c-0.181,0.616-0.145,0.797-0.145,0.797c-1.395,0.561-2.141,1.133-3.623,1.376c-1.161,0.14-2.282,0.506-2.282,0.506
					s-1.594,0.418-2.283,0.708c-0.688,0.29-0.942,0.452-0.942,0.452s-0.833,0.326-0.471,1.558s0.652,1.231,0.652,1.231
					s-0.434,0.471,0.326,1.703c0.761,1.232,0.878,1.486,0.878,1.486l0.172-0.616l0.617,1.231l0.072-0.869l0.362,0.869l0.146-0.651
					l0.181,0.219l0.181-0.29c0,0-0.254,0.616-0.073,1.015c0.182,0.398-0.144,1.159,1.558,1.993c1.703,0.833,2.609,0.29,2.609,0.29
					L90.896,100.12z"/>
				<path fill="#FFFFFF" d="M98.275,77.954c0,0,0.205-0.889-0.604-1.319c-0.809-0.429-2.627,1.996-3.133,3.512
					c-0.506,1.516-0.707,3.234-0.707,3.234h3.84L98.275,77.954z"/>
			</g>
		</g>
	</g>
	<g display="inline">
		<path fill="#FFFFFF" d="M210,18c12.131,0,22,9.869,22,22s-9.869,22-22,22s-22-9.869-22-22S197.869,18,210,18 M210,15
			c-13.807,0-25,11.193-25,25s11.193,25,25,25c13.808,0,25-11.193,25-25S223.808,15,210,15L210,15z"/>
	</g>
	
		<polyline display="inline" fill="none" stroke="#FFFFFF" stroke-width="4" stroke-linecap="round" stroke-linejoin="round" stroke-miterlimit="10" points="
		223,30.112 203.642,49.471 196.167,41.999 	"/>
</g>
<g id="btn-medium" display="none">
	<g display="inline">
		<g>
			<path fill="#B3B3B3" d="M250,235c0,8.25-6.75,15-15,15H15c-8.25,0-15-6.75-15-15V15C0,6.75,6.75,0,15,0h220c8.25,0,15,6.75,15,15
				V235z"/>
		</g>
		<rect x="12" y="159" fill="none" width="226" height="81"/>
		<text transform="matrix(1 0 0 1 51.7383 189.4805)"><tspan x="0" y="0" fill="#4D4D4D" font-family="'Roboto-Bold'" font-size="40">Medium</tspan><tspan x="32.217" y="26" fill="#4D4D4D" font-family="'Roboto-Regular'" font-size="20">15 - 30kg</tspan></text>
		<path fill="#4D4D4D" d="M107.614,81.772c0,0-7.798-2.012-13.519-7.67c0,0-1.13-1.006-2.325-2.704
			c-1.195-1.698-4.023-4.652-5.659-5.784c-1.636-1.131-2.263-2.327-2.829-2.704c-0.566-0.377-1.761-0.566-3.647,1.698
			c0,0-3.899,0.88-5.722,1.886c-1.509,0.754-2.452,2.327-2.452,2.327s-1.258,1.383-2.641,1.76c-1.382,0.377-4.338,0.44-6.036,1.132
			c-1.698,0.691-1.509,1.194-1.446,1.886s0.851,2.515,1.32,3.081c0.943,1.132,1.964,1.506,2.704,1.886c0,0-0.504,0.88-0.504,1.32
			s1.005,1.132,1.698,1.32c0.692,0.189,3.899,0.251,4.779,0.566c0.879,0.314,2.577,2.578,2.577,2.578s0.315,0.88,0.252,1.886
			s-0.754,2.58-0.754,2.58l0.818-0.314c0,0-0.504,2.577-0.693,3.081c0.507,0.133,0.818,0,0.818,0s0.564,2.264-0.44,4.464
			l0.754-0.377c0,0-0.188,2.201-0.377,2.955c0.611-0.206,1.006-0.629,1.006-0.629s-0.283,4.525,3.961,8.486
			c4.244,3.961,5.188,5.848,4.622,7.828c1.304-0.294,1.886-0.943,1.886-0.943l0.188,1.792l0.566-0.943c0,0,0.566,1.038,0.66,1.792
			c0.095,0.754,0.472-1.038,0.472-1.038s1.226,1.038,1.415,2.641c1.004-0.675,1.226-1.226,1.226-1.226s1.321,0.754,1.887,2.263
			c0.565,1.509,0.377,5.848,0.377,7.451c0,1.604-0.188,2.83,0.188,5.471c0.377,2.641-1.087,5.629-1.936,6.667
			c-1.317,0.203-2.387,0.123-2.874,0.783c0,0-0.66,0.85,0.283,1.32c0.943,0.472,1.187,0.401,1.187,0.401s-1.266,1.508,0.934,1.58
			c0.673,0.054,1.966,0.157,3.333,0.157c2.735,0,3.412-0.683,3.6-1.929c0.188-1.247,0.188-1.247,0.188-1.247l0.566,0.755
			l0.566-2.547l0.566-0.943c0,0,1.32,0.85,1.604,1.887c0.283,1.037,0-2.452,0-2.452s0.943,0.565,1.037,1.037s0-3.584,0-3.584
			l1.038,2.075c0,0,1.132-2.735,0.943-4.244c-0.189-1.509,0.66,1.98,0.66,1.98s0.943-1.98,0.66-3.584
			c1.132-1.604,1.98-3.018,1.603-7.262c0,0,6.225,0,8.96-2.83c0.095,1.226,1.132,2.452,1.132,2.452v-1.98
			c0,0,0.463,0.943,1.835,1.886c-0.42-1.415,0-2.358,0-2.358s1.277,1.32,3.729,1.792c-0.377-0.66-0.66-1.792-0.66-1.792
			s2.357,1.604,3.584,1.698c-0.566-1.038-0.849-2.546-0.849-2.546l2.829,1.886l-0.849-2.735c0,0,3.396,2.735,8.865-0.66
			c-0.377-0.849-0.849-1.886-0.849-1.886s0.66,0.566,2.075,0.66c-0.85-1.038-1.132-2.169-1.132-2.169s1.697,0.943,1.792,1.509
			c0.377-0.566,0.377-0.566,0-1.509c0,0,1.603,0.283,1.791,3.207c0.457-1.065,0.566-2.358,0.566-2.358s1.037,1.604,0.849,2.735
			c0.852-0.876,1.32-1.697,0.943-2.641c-0.377-0.943,0.943,1.98,0.943,2.83c0,0.849,0.942-1.604,0.565-2.358
			s3.207,3.867,6.319,5.847c3.112,1.981,1.98,5.282,1.98,5.282l1.037-0.943c0,0,0.188,2.547,0,4.056s0.849-2.075,0.849-2.075
			s0.755,2.452,0.85,4.811c0.884-0.743,1.132-1.604,1.132-1.604s0.849,2.547,0.754,3.678c0.472-1.371,0.66-2.169,0.66-2.169
			s0.755,3.019,3.867,4.716c0.535,0.657,0.411,1.98,0.411,1.98s-2.418,0.593-3.052,1.719c-0.396,0.703,0.955,1.09,1.743,1.332
			c0,0,4.4,0.943,6.098-0.943c0.375-0.857,0.459-2.956,0.459-2.956l0.062-1.415c0,0,0.735,2.196,4.037,2.762
			c3.301,0.566,3.257,0.162,3.257,0.162s-2.358-2.546-4.056-7.828c-1.698-5.281-1.433-6.581-2.055-9.729
			c0,0,0.309-1.431,0.734-2.155l1.697,2.075c0,0-0.849-3.207-1.037-4.999c0.66,0.849,1.509,1.038,1.509,1.038
			s-0.565-2.546-1.132-4.999c-0.565-2.452-0.849-4.999-0.849-4.999s1.037-9.054-0.943-13.487s-5.47-8.394-12.261-10.563
			c-6.791-2.169-11.506-3.773-20.561-1.698C125.282,84.225,113.336,83.093,107.614,81.772z"/>
	</g>
</g>
<g id="btn-medium-down" display="none">
	<g display="inline">
		<g>
			<path fill="#43A67B" d="M247,235.5c0,6.903-5.597,12.5-12.5,12.5h-220C7.597,248,2,242.403,2,235.5v-220C2,8.597,7.597,3,14.5,3
				h220c6.903,0,12.5,5.597,12.5,12.5V235.5z"/>
			<path fill="#1F704D" d="M235,5c5.514,0,10,4.486,10,10v220c0,5.514-4.486,10-10,10H15c-5.514,0-10-4.486-10-10V15
				C5,9.486,9.486,5,15,5H235 M235,0H15C6.75,0,0,6.75,0,15v220c0,8.25,6.75,15,15,15h220c8.25,0,15-6.75,15-15V15
				C250,6.75,243.25,0,235,0L235,0z"/>
		</g>
		<rect x="24" y="159" fill="none" width="202" height="81"/>
		<text transform="matrix(1 0 0 1 51.7383 189.4805)"><tspan x="0" y="0" fill="#FFFFFF" font-family="'Roboto-Bold'" font-size="40">Medium</tspan><tspan x="32.217" y="26" fill="#FFFFFF" font-family="'Roboto-Regular'" font-size="20">15 - 30kg</tspan></text>
		<path fill="#FFFFFF" d="M107.614,81.772c0,0-7.798-2.012-13.519-7.67c0,0-1.13-1.006-2.325-2.704
			c-1.195-1.698-4.023-4.652-5.659-5.784c-1.636-1.131-2.263-2.327-2.829-2.704c-0.566-0.377-1.761-0.566-3.647,1.698
			c0,0-3.899,0.88-5.722,1.886c-1.509,0.754-2.452,2.327-2.452,2.327s-1.258,1.383-2.641,1.76c-1.382,0.377-4.338,0.44-6.036,1.132
			c-1.698,0.691-1.509,1.194-1.446,1.886s0.851,2.515,1.32,3.081c0.943,1.132,1.964,1.506,2.704,1.886c0,0-0.504,0.88-0.504,1.32
			s1.005,1.132,1.698,1.32c0.692,0.189,3.899,0.251,4.779,0.566c0.879,0.314,2.577,2.578,2.577,2.578s0.315,0.88,0.252,1.886
			s-0.754,2.58-0.754,2.58l0.818-0.314c0,0-0.504,2.577-0.693,3.081c0.507,0.133,0.818,0,0.818,0s0.564,2.264-0.44,4.464
			l0.754-0.377c0,0-0.188,2.201-0.377,2.955c0.611-0.206,1.006-0.629,1.006-0.629s-0.283,4.525,3.961,8.486
			c4.244,3.961,5.188,5.848,4.622,7.828c1.304-0.294,1.886-0.943,1.886-0.943l0.188,1.792l0.566-0.943c0,0,0.566,1.038,0.66,1.792
			c0.095,0.754,0.472-1.038,0.472-1.038s1.226,1.038,1.415,2.641c1.004-0.675,1.226-1.226,1.226-1.226s1.321,0.754,1.887,2.263
			c0.565,1.509,0.377,5.848,0.377,7.451c0,1.604-0.188,2.83,0.188,5.471c0.377,2.641-1.087,5.629-1.936,6.667
			c-1.317,0.203-2.387,0.123-2.874,0.783c0,0-0.66,0.85,0.283,1.32c0.943,0.472,1.187,0.401,1.187,0.401s-1.266,1.508,0.934,1.58
			c0.673,0.054,1.966,0.157,3.333,0.157c2.735,0,3.412-0.683,3.6-1.929c0.188-1.247,0.188-1.247,0.188-1.247l0.566,0.755
			l0.566-2.547l0.566-0.943c0,0,1.32,0.85,1.604,1.887c0.283,1.037,0-2.452,0-2.452s0.943,0.565,1.037,1.037s0-3.584,0-3.584
			l1.038,2.075c0,0,1.132-2.735,0.943-4.244c-0.189-1.509,0.66,1.98,0.66,1.98s0.943-1.98,0.66-3.584
			c1.132-1.604,1.98-3.018,1.603-7.262c0,0,6.225,0,8.96-2.83c0.095,1.226,1.132,2.452,1.132,2.452v-1.98
			c0,0,0.463,0.943,1.835,1.886c-0.42-1.415,0-2.358,0-2.358s1.277,1.32,3.729,1.792c-0.377-0.66-0.66-1.792-0.66-1.792
			s2.357,1.604,3.584,1.698c-0.566-1.038-0.849-2.546-0.849-2.546l2.829,1.886l-0.849-2.735c0,0,3.396,2.735,8.865-0.66
			c-0.377-0.849-0.849-1.886-0.849-1.886s0.66,0.566,2.075,0.66c-0.85-1.038-1.132-2.169-1.132-2.169s1.697,0.943,1.792,1.509
			c0.377-0.566,0.377-0.566,0-1.509c0,0,1.603,0.283,1.791,3.207c0.457-1.065,0.566-2.358,0.566-2.358s1.037,1.604,0.849,2.735
			c0.852-0.876,1.32-1.697,0.943-2.641c-0.377-0.943,0.943,1.98,0.943,2.83c0,0.849,0.942-1.604,0.565-2.358
			s3.207,3.867,6.319,5.847c3.112,1.981,1.98,5.282,1.98,5.282l1.037-0.943c0,0,0.188,2.547,0,4.056s0.849-2.075,0.849-2.075
			s0.755,2.452,0.85,4.811c0.884-0.743,1.132-1.604,1.132-1.604s0.849,2.547,0.754,3.678c0.472-1.371,0.66-2.169,0.66-2.169
			s0.755,3.019,3.867,4.716c0.535,0.657,0.411,1.98,0.411,1.98s-2.418,0.593-3.052,1.719c-0.396,0.703,0.955,1.09,1.743,1.332
			c0,0,4.4,0.943,6.098-0.943c0.375-0.857,0.459-2.956,0.459-2.956l0.062-1.415c0,0,0.735,2.196,4.037,2.762
			c3.301,0.566,3.257,0.162,3.257,0.162s-2.358-2.546-4.056-7.828c-1.698-5.281-1.433-6.581-2.055-9.729
			c0,0,0.309-1.431,0.734-2.155l1.697,2.075c0,0-0.849-3.207-1.037-4.999c0.66,0.849,1.509,1.038,1.509,1.038
			s-0.565-2.546-1.132-4.999c-0.565-2.452-0.849-4.999-0.849-4.999s1.037-9.054-0.943-13.487s-5.47-8.394-12.261-10.563
			c-6.791-2.169-11.506-3.773-20.561-1.698C125.282,84.225,113.336,83.093,107.614,81.772z"/>
	</g>
	<g display="inline">
		<path fill="#FFFFFF" d="M210,18c12.131,0,22,9.869,22,22s-9.869,22-22,22s-22-9.869-22-22S197.869,18,210,18 M210,15
			c-13.807,0-25,11.193-25,25s11.193,25,25,25c13.808,0,25-11.193,25-25S223.808,15,210,15L210,15z"/>
	</g>
	
		<polyline display="inline" fill="none" stroke="#FFFFFF" stroke-width="4" stroke-linecap="round" stroke-linejoin="round" stroke-miterlimit="10" points="
		223,30.112 203.642,49.471 196.167,41.999 	"/>
</g>
<g id="btn-large" display="none">
	<g display="inline">
		<g>
			<path fill="#B3B3B3" d="M250,235c0,8.25-6.75,15-15,15H15c-8.25,0-15-6.75-15-15V15C0,6.75,6.75,0,15,0h220c8.25,0,15,6.75,15,15
				V235z"/>
		</g>
		<rect x="12" y="159" fill="none" width="226" height="81"/>
		<text transform="matrix(1 0 0 1 74.5605 189.4805)"><tspan x="0" y="0" fill="#4D4D4D" font-family="'Roboto-Bold'" font-size="40">Large</tspan><tspan x="9.39" y="26" fill="#4D4D4D" font-family="'Roboto-Regular'" font-size="20">30 - 40kg</tspan></text>
		<g>
			<g>
				<path fill="#4D4D4D" d="M53.374,70.523c-0.018,0.016-0.067,0.013-0.161-0.019C53.213,70.504,53.272,70.512,53.374,70.523z"/>
				<path fill="#4D4D4D" d="M181.987,140.187c-0.417-0.164-0.822-0.358-1.212-0.575c0.678-0.213,0.943-0.173,1.258-0.461
					c-2.735-0.746-3.838-1.449-4.388-2.022c-2.121-2.22-3.624-4.945-4.568-6.687c-0.269-0.496,0.72,0.647,1.183,0.387
					c-1.058-2.127-1.31-4.99-1.31-4.99l1.558,1.121c0,0-1.517-4.542-1.486-7.029c0.03-2.486,0.056-4.516,0.056-4.516
					s-0.094-7.185-2.146-12.689s-12.036-13.809-23.326-18.194c0,0-11.849-4.479-30.043-7.744
					c-18.194-3.266-20.061-6.625-23.139-9.05c-3.079-2.426-7.558-8.304-10.917-10.077c0,0-0.653-0.653-0.746-1.026
					c-0.093-0.374-1.213-3.173-1.399-5.225c-0.187-2.053-0.374-8.228-1.493-10.505c-0.747-1.158-2.706,1.268-2.706,1.268
					s-2.426,3.359-2.613,6.531c-0.279,0.747-0.279,0.747-0.279,0.747l-1.151,0.156c0,0-1.308-2.114-1.555-2.737
					c-0.248-0.622-1.929-4.913-2.053-5.598c-0.124-0.685-0.56-0.248-0.684,0c-0.124,0.248-1.12,5.039-1.057,7.588
					c0.041,1.68,0.134,2.005,0.194,2.034c-0.453,0.372-3.826,3.132-4.984,4c-1.244,0.933-2.053,1.369-2.053,2.24
					c0,0.87-0.497,2.426-0.497,2.426l-1.68,1.367l-8.086,4.355c0,0-0.871,0.684-0.871,1.307c0,0.622,1.237,1.654,2.177,2.736
					c0,0,1.516,1.091,1.405,1.202c0.755,0.089,4.104,0.456,6.681,0.292c1.057-0.025,0.311,0.499,0.311,0.499
					s-2.738,1.99-2.986,2.176c-0.248,0.187-1.243,0.062-1.243,0.684s0.061,1.617,0.684,2.239s1.68,0.745,4.044,0.372
					c2.363-0.373,2.86-1.493,4.105-2.053c1.243-0.56,2.113-0.56,3.359-0.311c0.248,0.933,0.434,2.114,1.367,3.11
					c0,0,2.737,3.735,3.918,9.768c1.183,6.033,2.674,12.378,4.105,14.804c1.432,2.426,4.913,6.717,9.331,9.269
					c0.685,2.985,1.555,5.473,2.178,7.401c0,0,0.746,5.725,1.43,8.898c0.684,3.172,0.871,3.607,0.871,3.607
					s-0.125,1.494-0.311,2.676c-0.187,1.181-1.43,5.659-1.43,5.659s-4.23,0.498-5.474,2.178s-0.374,1.99-0.374,1.99
					s-0.062,0.809,0.933,1.182c0.996,0.374,4.355,0.437,5.785,0.374c1.43-0.063,3.856,0.109,5.162,0.022
					c0.782-0.053,1.971-1.786,3.452-4.287c0.991-1.675,2.261-2.825,2.385-4.371c0,0,0.383-5.361,0.57-9.777
					c0.186-4.416,0.497-10.823,0.497-10.823l3.111-2.121c0,0,0.747-0.187,1.306-0.249c0,0,7.712,1.311,17.789,0.937
					c4.293-0.155,6.159-0.187,6.159-0.187s2.238,4.292,3.731,6.718c1.492,2.426,2.239,4.479,3.919,6.345
					c0,0,0.699,1.679,0.746,2.659c0.047,0.979,0,4.524,0,4.524s0,0.7-0.793,1.399c-0.793,0.7-5.785,2.193-7.837,2.566
					c-2.053,0.373-5.085,0.187-6.345,1.493c-1.26,1.306,0.327,1.959,0.327,1.959s1.615,0.822,6.875,0.84
					c-0.617,1.035,0.63,1.558,0.63,1.558s1.727,0.886,7.464,0.839c3.29-0.184,6.531-0.979,8.351-1.213c0,0,2.707-0.56,5.039-1.68
					c2.333-1.119,2.588-2.163,2.558-4.152c-0.033-1.985-1.222-3.493-1.455-5.219c0,0-0.31-2.992,0.156-4.811
					c0.225-1.686,1.253-4.262,2.383-5.619c0.211,0.079,0.377,0.134,0.423,0.143l6.345,3.592c0,0-0.793,3.172-0.7,4.292
					c0.549-0.471,0.7-0.933,0.7-0.933s0.887,5.784,2.099,8.117c0.114-0.85,0-1.586,0-1.586s0.464,1.189,1.345,2.658
					c0.009,1.214,0.242,2.146,0.709,2.894c-0.091-0.813,0.093-1.261,0.093-1.261c0.966,1.345,2.291,2.386,3.826,3.173
					c3.824,1.959,12.054,0.617,14.945,0.15l2.502-0.425C189.125,143.504,186.513,141.959,181.987,140.187z"/>
			</g>
		</g>
	</g>
</g>
<g id="btn-large-down" display="none">
	<g display="inline">
		<g>
			<path fill="#43A67B" d="M247,235.5c0,6.903-5.597,12.5-12.5,12.5h-220C7.597,248,2,242.403,2,235.5v-220C2,8.597,7.597,3,14.5,3
				h220c6.903,0,12.5,5.597,12.5,12.5V235.5z"/>
			<path fill="#1F704D" d="M235,5c5.514,0,10,4.486,10,10v220c0,5.514-4.486,10-10,10H15c-5.514,0-10-4.486-10-10V15
				C5,9.486,9.486,5,15,5H235 M235,0H15C6.75,0,0,6.75,0,15v220c0,8.25,6.75,15,15,15h220c8.25,0,15-6.75,15-15V15
				C250,6.75,243.25,0,235,0L235,0z"/>
		</g>
		<rect x="24" y="159" fill="none" width="202" height="81"/>
		<text transform="matrix(1 0 0 1 74.5605 189.4805)"><tspan x="0" y="0" fill="#FFFFFF" font-family="'Roboto-Bold'" font-size="40">Large</tspan><tspan x="9.39" y="26" fill="#FFFFFF" font-family="'Roboto-Regular'" font-size="20">30 - 40kg</tspan></text>
		<g>
			<g>
				<path fill="#FFFFFF" d="M53.374,70.523c-0.018,0.016-0.067,0.013-0.161-0.019C53.213,70.504,53.272,70.512,53.374,70.523z"/>
				<path fill="#FFFFFF" d="M181.987,140.187c-0.417-0.164-0.822-0.358-1.212-0.575c0.678-0.213,0.943-0.173,1.258-0.461
					c-2.735-0.746-3.838-1.449-4.388-2.022c-2.121-2.22-3.624-4.945-4.568-6.687c-0.269-0.496,0.72,0.647,1.183,0.387
					c-1.058-2.127-1.31-4.99-1.31-4.99l1.558,1.121c0,0-1.517-4.542-1.486-7.029c0.03-2.486,0.056-4.516,0.056-4.516
					s-0.094-7.185-2.146-12.689s-12.036-13.809-23.326-18.194c0,0-11.849-4.479-30.043-7.744
					c-18.194-3.266-20.061-6.625-23.139-9.05c-3.079-2.426-7.558-8.304-10.917-10.077c0,0-0.653-0.653-0.746-1.026
					c-0.093-0.374-1.213-3.173-1.399-5.225c-0.187-2.053-0.374-8.228-1.493-10.505c-0.747-1.158-2.706,1.268-2.706,1.268
					s-2.426,3.359-2.613,6.531c-0.279,0.747-0.279,0.747-0.279,0.747l-1.151,0.156c0,0-1.308-2.114-1.555-2.737
					c-0.248-0.622-1.929-4.913-2.053-5.598c-0.124-0.685-0.56-0.248-0.684,0c-0.124,0.248-1.12,5.039-1.057,7.588
					c0.041,1.68,0.134,2.005,0.194,2.034c-0.453,0.372-3.826,3.132-4.984,4c-1.244,0.933-2.053,1.369-2.053,2.24
					c0,0.87-0.497,2.426-0.497,2.426l-1.68,1.367l-8.086,4.355c0,0-0.871,0.684-0.871,1.307c0,0.622,1.237,1.654,2.177,2.736
					c0,0,1.516,1.091,1.405,1.202c0.755,0.089,4.104,0.456,6.681,0.292c1.057-0.025,0.311,0.499,0.311,0.499
					s-2.738,1.99-2.986,2.176c-0.248,0.187-1.243,0.062-1.243,0.684s0.061,1.617,0.684,2.239s1.68,0.745,4.044,0.372
					c2.363-0.373,2.86-1.493,4.105-2.053c1.243-0.56,2.113-0.56,3.359-0.311c0.248,0.933,0.434,2.114,1.367,3.11
					c0,0,2.737,3.735,3.918,9.768c1.183,6.033,2.674,12.378,4.105,14.804c1.432,2.426,4.913,6.717,9.331,9.269
					c0.685,2.985,1.555,5.473,2.178,7.401c0,0,0.746,5.725,1.43,8.898c0.684,3.172,0.871,3.607,0.871,3.607
					s-0.125,1.494-0.311,2.676c-0.187,1.181-1.43,5.659-1.43,5.659s-4.23,0.498-5.474,2.178s-0.374,1.99-0.374,1.99
					s-0.062,0.809,0.933,1.182c0.996,0.374,4.355,0.437,5.785,0.374c1.43-0.063,3.856,0.109,5.162,0.022
					c0.782-0.053,1.971-1.786,3.452-4.287c0.991-1.675,2.261-2.825,2.385-4.371c0,0,0.383-5.361,0.57-9.777
					c0.186-4.416,0.497-10.823,0.497-10.823l3.111-2.121c0,0,0.747-0.187,1.306-0.249c0,0,7.712,1.311,17.789,0.937
					c4.293-0.155,6.159-0.187,6.159-0.187s2.238,4.292,3.731,6.718c1.492,2.426,2.239,4.479,3.919,6.345
					c0,0,0.699,1.679,0.746,2.659c0.047,0.979,0,4.524,0,4.524s0,0.7-0.793,1.399c-0.793,0.7-5.785,2.193-7.837,2.566
					c-2.053,0.373-5.085,0.187-6.345,1.493c-1.26,1.306,0.327,1.959,0.327,1.959s1.615,0.822,6.875,0.84
					c-0.617,1.035,0.63,1.558,0.63,1.558s1.727,0.886,7.464,0.839c3.29-0.184,6.531-0.979,8.351-1.213c0,0,2.707-0.56,5.039-1.68
					c2.333-1.119,2.588-2.163,2.558-4.152c-0.033-1.985-1.222-3.493-1.455-5.219c0,0-0.31-2.992,0.156-4.811
					c0.225-1.686,1.253-4.262,2.383-5.619c0.211,0.079,0.377,0.134,0.423,0.143l6.345,3.592c0,0-0.793,3.172-0.7,4.292
					c0.549-0.471,0.7-0.933,0.7-0.933s0.887,5.784,2.099,8.117c0.114-0.85,0-1.586,0-1.586s0.464,1.189,1.345,2.658
					c0.009,1.214,0.242,2.146,0.709,2.894c-0.091-0.813,0.093-1.261,0.093-1.261c0.966,1.345,2.291,2.386,3.826,3.173
					c3.824,1.959,12.054,0.617,14.945,0.15l2.502-0.425C189.125,143.504,186.513,141.959,181.987,140.187z"/>
			</g>
		</g>
	</g>
	<g display="inline">
		<path fill="#FFFFFF" d="M210,18c12.131,0,22,9.869,22,22s-9.869,22-22,22s-22-9.869-22-22S197.869,18,210,18 M210,15
			c-13.807,0-25,11.193-25,25s11.193,25,25,25c13.808,0,25-11.193,25-25S223.808,15,210,15L210,15z"/>
	</g>
	
		<polyline display="inline" fill="none" stroke="#FFFFFF" stroke-width="4" stroke-linecap="round" stroke-linejoin="round" stroke-miterlimit="10" points="
		223,30.112 203.642,49.471 196.167,41.999 	"/>
</g>
<g id="btn-giant_copy" display="none">
	<g display="inline">
		<g>
			<path fill="#B3B3B3" d="M250,235c0,8.25-6.75,15-15,15H15c-8.25,0-15-6.75-15-15V15C0,6.75,6.75,0,15,0h220c8.25,0,15,6.75,15,15
				V235z"/>
		</g>
		<rect x="12" y="159" fill="none" width="226" height="81"/>
		<text transform="matrix(1 0 0 1 77.2754 189.4805)"><tspan x="0" y="0" fill="#4D4D4D" font-family="'Roboto-Bold'" font-size="40">Giant</tspan><tspan x="20.415" y="26" fill="#4D4D4D" font-family="'Roboto-Regular'" font-size="20">&gt;40kg</tspan></text>
		<path fill="#4D4D4D" d="M95.751,58.306c0,0-3.892-2.701-5.798-5.322c0,0-2.065-2.939-3.098-6.354
			c-1.033-3.416-2.224-3.812-3.654-5.242s-5.56-5.64-6.434-6.911c-0.874-1.271-1.827-2.939-5.083-2.78
			c-3.257,0.159-11.2,1.13-15.092,4.695c-1.091,1.121-0.636,3.724-0.636,3.724s-1.509,1.43-2.065,1.986s-3.336,1.35-5.401,2.303
			c-2.065,0.954-2.939,1.509-3.892,2.065s-1.271,1.748-0.397,2.859c0.391,0.472,0.794,0.715,0.794,0.715s0.159,1.589,0.636,2.939
			c0.477,1.351,2.303,5.163,5.957,8.34c0.803,0.649,5.958,2.224,5.958,2.224s1.033,0.635,3.098-0.556
			c0.683-0.38,1.748-0.715,1.748-0.715s-0.08,2.224,0.635,3.733c0.715,1.509,1.271,3.812,3.575,5.719
			c0.238,1.509,0.953,2.86,0.953,2.86s0,2.859-0.08,5.083s-0.318,4.369-0.318,4.369s-0.635,1.588-0.556,2.224
			c0.079,0.635,0.556,0.635,0.556,0.635s-0.159,2.304,0.397,3.098c0.556,0.794,1.033,1.112,1.35,2.86
			c0.277,0.896,0.963,1.366,1.648,2.327c0.685,0.96,1.847,2.677,4.627,5.934c0,0,2.065,1.748,5.401,5.242
			c0.84,0.904,1.033,1.907,1.033,1.907s0.953,8.976,1.033,13.662s-0.002,6.441,0.156,7.95c0.159,1.51,0.797,4.361,0.797,6.108
			l-0.715,2.622l-1.986,3.177h-2.939c0,0-1.112,0.079-1.827,0.953s-1.43,2.225-0.953,2.542s2.303,0.317,3.733,0
			c-0.7,1.086-1.827,1.668-1.986,2.542c0,0,0,0.715,1.033,0.794s2.383,0.238,3.416,0c0.556,0.397,1.509,0.409,2.859,0.125
			c0,0,3.813-0.442,4.766-1.476c0.953-1.032,1.033-2.938,1.033-2.938s1.35-2.542,1.588-3.812c0.238-1.271,0.847-1.02,2.065-1.351
			c0,0,0.715-0.477,0.317-2.78c-0.397-2.304-0.079-8.42,0.874-13.583c0.953-5.163,1.668-8.34,1.827-10.326
			c0,0,1.112-0.397,3.575-0.397s7.308-0.397,11.914-0.953c4.607-0.556,8.103,0.08,8.738,0.318c0.635,0.238,1.668,1.032,4.051-0.556
			c2.383-1.589,3.733-1.827,3.733-1.827s5.083-0.635,7.784-1.588c2.7-0.953,10.246-2.145,14.059-0.318c0,0,6.752,5.798,9.611,8.102
			c2.859,2.303,13.9,10.326,19.778,17.792c0.851,1.081,1.43,1.985,1.43,1.985v6.435l-2.938,0.158c0,0-1.589,0.318-2.542,1.271
			s-1.827,2.145-0.874,3.019c0.953,0.873,2.463,0.158,2.463,0.158s0.556,0.477,1.35,0.557c0.795,0.079,1.271,0.079,1.271,0.079
			s-0.874,0.159-1.986,1.271c-1.111,1.112-1.111,1.191-0.953,2.065c0.159,0.874,1.351,1.668,3.654,1.51
			c2.304-0.159,2.383-1.033,4.289-0.953c1.906,0.079,3.098-0.318,3.653-1.033c0.557-0.715,0.397-2.383,0-4.448
			c-0.396-2.065-0.317-10.644-0.477-11.756c-0.158-1.111-1.191-4.527-1.271-5.798s-0.317-2.224-0.636-2.701
			c-0.317-0.477,0-1.827-1.032-2.7c-1.032-0.874-9.135-8.023-9.85-9.214s-2.065-7.784-2.224-10.882
			c-0.159-3.098,1.271-10.008,0.238-14.218c-1.033-4.209-1.43-6.513-4.925-9.929c-0.318-1.827,1.271-4.925,1.271-4.925
			s5.878-10.405,7.784-15.807c0,0,1.271-4.607,0.08-9.452c-1.51-6.514-7.308-13.683-13.345-16.056c0,0-12.63-3.484-19.778-8.171
			c-1.351-0.238-0.556,1.271-0.556,1.271s3.812,5.083,8.34,7.387c4.527,2.303,13.979,4.924,18.587,13.583
			c2.859,5.56-0.953,13.344-0.953,13.344s-2.859,5.401-9.294,9.532c-4.924,0.953-14.933,0.159-14.933,0.159
			s-11.041-0.794-19.619-0.317c-3.724,0.051-9.524-1.509-9.767-1.589c0,0-0.639-0.238-1.989-0.715s-1.668-1.748-3.495-1.827
			c-1.827-0.08-4.766-0.238-4.766-0.238s-2.383-4.051-5.322-3.495C100.035,60.666,97.579,58.068,95.751,58.306z"/>
	</g>
</g>
<g id="btn-giant-down_copy">
	<g>
		<g>
			<path fill="#43A67B" d="M247,235.5c0,6.903-5.597,12.5-12.5,12.5h-220C7.597,248,2,242.403,2,235.5v-220C2,8.597,7.597,3,14.5,3
				h220c6.903,0,12.5,5.597,12.5,12.5V235.5z"/>
			<path fill="#1F704D" d="M235,5c5.514,0,10,4.486,10,10v220c0,5.514-4.486,10-10,10H15c-5.514,0-10-4.486-10-10V15
				C5,9.486,9.486,5,15,5H235 M235,0H15C6.75,0,0,6.75,0,15v220c0,8.25,6.75,15,15,15h220c8.25,0,15-6.75,15-15V15
				C250,6.75,243.25,0,235,0L235,0z"/>
		</g>
		<rect x="24" y="159" fill="none" width="202" height="81"/>
		<text transform="matrix(1 0 0 1 77.2754 189.4805)"><tspan x="0" y="0" fill="#FFFFFF" font-family="'Roboto-Bold'" font-size="40">Giant</tspan><tspan x="17.93" y="26" fill="#FFFFFF" font-family="'Roboto-Regular'" font-size="20">&gt; 40kg</tspan></text>
		<path fill="#FFFFFF" d="M95.751,58.306c0,0-3.892-2.701-5.798-5.322c0,0-2.065-2.939-3.098-6.354
			c-1.033-3.416-2.224-3.812-3.654-5.242s-5.56-5.64-6.434-6.911c-0.874-1.271-1.827-2.939-5.083-2.78
			c-3.257,0.159-11.2,1.13-15.092,4.695c-1.091,1.121-0.636,3.724-0.636,3.724s-1.509,1.43-2.065,1.986s-3.336,1.35-5.401,2.303
			c-2.065,0.954-2.939,1.509-3.892,2.065s-1.271,1.748-0.397,2.859c0.391,0.472,0.794,0.715,0.794,0.715s0.159,1.589,0.636,2.939
			c0.477,1.351,2.303,5.163,5.957,8.34c0.803,0.649,5.958,2.224,5.958,2.224s1.033,0.635,3.098-0.556
			c0.683-0.38,1.748-0.715,1.748-0.715s-0.08,2.224,0.635,3.733c0.715,1.509,1.271,3.812,3.575,5.719
			c0.238,1.509,0.953,2.86,0.953,2.86s0,2.859-0.08,5.083s-0.318,4.369-0.318,4.369s-0.635,1.588-0.556,2.224
			c0.079,0.635,0.556,0.635,0.556,0.635s-0.159,2.304,0.397,3.098c0.556,0.794,1.033,1.112,1.35,2.86
			c0.277,0.896,0.963,1.366,1.648,2.327c0.685,0.96,1.847,2.677,4.627,5.934c0,0,2.065,1.748,5.401,5.242
			c0.84,0.904,1.033,1.907,1.033,1.907s0.953,8.976,1.033,13.662s-0.002,6.441,0.156,7.95c0.159,1.51,0.797,4.361,0.797,6.108
			l-0.715,2.622l-1.986,3.177h-2.939c0,0-1.112,0.079-1.827,0.953s-1.43,2.225-0.953,2.542s2.303,0.317,3.733,0
			c-0.7,1.086-1.827,1.668-1.986,2.542c0,0,0,0.715,1.033,0.794s2.383,0.238,3.416,0c0.556,0.397,1.509,0.409,2.859,0.125
			c0,0,3.813-0.442,4.766-1.476c0.953-1.032,1.033-2.938,1.033-2.938s1.35-2.542,1.588-3.812c0.238-1.271,0.847-1.02,2.065-1.351
			c0,0,0.715-0.477,0.317-2.78c-0.397-2.304-0.079-8.42,0.874-13.583c0.953-5.163,1.668-8.34,1.827-10.326
			c0,0,1.112-0.397,3.575-0.397s7.308-0.397,11.914-0.953c4.607-0.556,8.103,0.08,8.738,0.318c0.635,0.238,1.668,1.032,4.051-0.556
			c2.383-1.589,3.733-1.827,3.733-1.827s5.083-0.635,7.784-1.588c2.7-0.953,10.246-2.145,14.059-0.318c0,0,6.752,5.798,9.611,8.102
			c2.859,2.303,13.9,10.326,19.778,17.792c0.851,1.081,1.43,1.985,1.43,1.985v6.435l-2.938,0.158c0,0-1.589,0.318-2.542,1.271
			s-1.827,2.145-0.874,3.019c0.953,0.873,2.463,0.158,2.463,0.158s0.556,0.477,1.35,0.557c0.795,0.079,1.271,0.079,1.271,0.079
			s-0.874,0.159-1.986,1.271c-1.111,1.112-1.111,1.191-0.953,2.065c0.159,0.874,1.351,1.668,3.654,1.51
			c2.304-0.159,2.383-1.033,4.289-0.953c1.906,0.079,3.098-0.318,3.653-1.033c0.557-0.715,0.397-2.383,0-4.448
			c-0.396-2.065-0.317-10.644-0.477-11.756c-0.158-1.111-1.191-4.527-1.271-5.798s-0.317-2.224-0.636-2.701
			c-0.317-0.477,0-1.827-1.032-2.7c-1.032-0.874-9.135-8.023-9.85-9.214s-2.065-7.784-2.224-10.882
			c-0.159-3.098,1.271-10.008,0.238-14.218c-1.033-4.209-1.43-6.513-4.925-9.929c-0.318-1.827,1.271-4.925,1.271-4.925
			s5.878-10.405,7.784-15.807c0,0,1.271-4.607,0.08-9.452c-1.51-6.514-7.308-13.683-13.345-16.056c0,0-12.63-3.484-19.778-8.171
			c-1.351-0.238-0.556,1.271-0.556,1.271s3.812,5.083,8.34,7.387c4.527,2.303,13.979,4.924,18.587,13.583
			c2.859,5.56-0.953,13.344-0.953,13.344s-2.859,5.401-9.294,9.532c-4.924,0.953-14.933,0.159-14.933,0.159
			s-11.041-0.794-19.619-0.317c-3.724,0.051-9.524-1.509-9.767-1.589c0,0-0.639-0.238-1.989-0.715s-1.668-1.748-3.495-1.827
			c-1.827-0.08-4.766-0.238-4.766-0.238s-2.383-4.051-5.322-3.495C100.035,60.666,97.579,58.068,95.751,58.306z"/>
	</g>
	<g>
		<path fill="#FFFFFF" d="M210,18c12.131,0,22,9.869,22,22s-9.869,22-22,22s-22-9.869-22-22S197.869,18,210,18 M210,15
			c-13.807,0-25,11.193-25,25s11.193,25,25,25c13.808,0,25-11.193,25-25S223.808,15,210,15L210,15z"/>
	</g>
	
		<polyline fill="none" stroke="#FFFFFF" stroke-width="4" stroke-linecap="round" stroke-linejoin="round" stroke-miterlimit="10" points="
		223,30.112 203.642,49.471 196.167,41.999 	"/>
</g>
</svg>
